<mxfile host="app.diagrams.net" modified="2024-02-08T06:05:48.040Z" agent="Mozilla/5.0 (Macintosh; Intel Mac OS X 10_15_7) AppleWebKit/537.36 (KHTML, like Gecko) Chrome/121.0.0.0 Safari/537.36" etag="eVsWLEPo54nAjMQUnKf8" version="23.1.2" type="github">
  <diagram name="Страница — 1" id="0X4Tsk7rG1AD-qvWXfFy">
    <mxGraphModel dx="2726" dy="1757" grid="1" gridSize="10" guides="1" tooltips="1" connect="1" arrows="1" fold="1" page="1" pageScale="1" pageWidth="827" pageHeight="1169" math="0" shadow="0">
      <root>
        <mxCell id="0" />
        <mxCell id="1" parent="0" />
        <mxCell id="L50RFGKwdpJZtkNbnAKo-10" value="" style="rounded=0;whiteSpace=wrap;html=1;dashed=1;dashPattern=12 12;" vertex="1" parent="1">
          <mxGeometry x="260" y="520" width="360" height="280" as="geometry" />
        </mxCell>
        <mxCell id="L50RFGKwdpJZtkNbnAKo-1" value="&lt;font style=&quot;font-size: 18px;&quot;&gt;TODOS&amp;nbsp; APP&lt;/font&gt;" style="rounded=0;whiteSpace=wrap;html=1;" vertex="1" parent="1">
          <mxGeometry x="354" y="50" width="120" height="60" as="geometry" />
        </mxCell>
        <mxCell id="L50RFGKwdpJZtkNbnAKo-2" value="&lt;font style=&quot;font-size: 18px;&quot;&gt;View&lt;/font&gt;" style="rounded=0;whiteSpace=wrap;html=1;" vertex="1" parent="1">
          <mxGeometry x="360" y="160" width="120" height="60" as="geometry" />
        </mxCell>
        <mxCell id="L50RFGKwdpJZtkNbnAKo-4" value="&lt;font style=&quot;font-size: 18px;&quot;&gt;Business logic&lt;/font&gt;" style="rounded=0;whiteSpace=wrap;html=1;" vertex="1" parent="1">
          <mxGeometry x="360" y="340" width="120" height="60" as="geometry" />
        </mxCell>
        <mxCell id="L50RFGKwdpJZtkNbnAKo-5" value="&lt;font style=&quot;font-size: 18px;&quot;&gt;Libs&lt;br&gt;&lt;/font&gt;" style="rounded=0;whiteSpace=wrap;html=1;" vertex="1" parent="1">
          <mxGeometry x="380" y="640" width="120" height="60" as="geometry" />
        </mxCell>
        <mxCell id="L50RFGKwdpJZtkNbnAKo-12" value="&lt;font style=&quot;font-size: 18px;&quot;&gt;render&lt;br&gt;&lt;/font&gt;" style="rounded=0;whiteSpace=wrap;html=1;" vertex="1" parent="1">
          <mxGeometry x="670" y="530" width="120" height="60" as="geometry" />
        </mxCell>
        <mxCell id="L50RFGKwdpJZtkNbnAKo-13" value="&lt;font style=&quot;font-size: 18px;&quot;&gt;router&lt;br&gt;&lt;/font&gt;" style="rounded=0;whiteSpace=wrap;html=1;" vertex="1" parent="1">
          <mxGeometry x="670" y="670" width="120" height="60" as="geometry" />
        </mxCell>
        <mxCell id="L50RFGKwdpJZtkNbnAKo-16" value="&lt;font style=&quot;font-size: 18px;&quot;&gt;Приложение строится по аналогии с single page application. Визуальная часть делится на шаблоны - компоненты. За каждым шаблоном закреплена своя логика и стили.&amp;nbsp;&lt;br&gt;Render за отображение и интерактивность шаблонов&lt;br&gt;&lt;/font&gt;" style="rounded=0;whiteSpace=wrap;html=1;" vertex="1" parent="1">
          <mxGeometry x="827" y="460" width="430" height="140" as="geometry" />
        </mxCell>
        <mxCell id="L50RFGKwdpJZtkNbnAKo-19" value="&lt;font style=&quot;font-size: 18px;&quot;&gt;Функционал&lt;br&gt;&lt;/font&gt;" style="rounded=0;whiteSpace=wrap;html=1;" vertex="1" parent="1">
          <mxGeometry x="1300" y="520" width="120" height="60" as="geometry" />
        </mxCell>
        <mxCell id="L50RFGKwdpJZtkNbnAKo-20" value="&lt;font style=&quot;font-size: 18px;&quot;&gt;Создание шаблона&lt;br&gt;&lt;/font&gt;" style="rounded=0;whiteSpace=wrap;html=1;" vertex="1" parent="1">
          <mxGeometry x="1430" y="430" width="120" height="60" as="geometry" />
        </mxCell>
        <mxCell id="L50RFGKwdpJZtkNbnAKo-21" value="&lt;font style=&quot;font-size: 18px;&quot;&gt;Вставка разметки в корень проекта (верхнеуровнего элемента - app)&lt;br&gt;&lt;/font&gt;" style="rounded=0;whiteSpace=wrap;html=1;" vertex="1" parent="1">
          <mxGeometry x="1580" y="360" width="310" height="60" as="geometry" />
        </mxCell>
        <mxCell id="L50RFGKwdpJZtkNbnAKo-22" value="&lt;font style=&quot;font-size: 18px;&quot;&gt;Вставка скриптов в текущем шаблоне&lt;br&gt;&lt;/font&gt;" style="rounded=0;whiteSpace=wrap;html=1;" vertex="1" parent="1">
          <mxGeometry x="1580" y="440" width="310" height="60" as="geometry" />
        </mxCell>
      </root>
    </mxGraphModel>
  </diagram>
</mxfile>
